<?xml version="1.0" encoding="UTF-8"?>
<svg id="_Слой_1" data-name="Слой 1" xmlns="http://www.w3.org/2000/svg" xmlns:xlink="http://www.w3.org/1999/xlink" viewBox="0 0 132 132">
  <defs>
    <style>
      .cls-1 {
        fill: url(#_Безымянный_градиент);
      }

      .cls-2 {
        fill: url(#_Безымянный_градиент_2);
      }
    </style>
    <radialGradient id="_Безымянный_градиент" data-name="Безымянный градиент" cx="-26.04" cy="-272.85" fx="-26.04" fy="-272.85" r="65" gradientTransform="translate(-467.56 89.39) rotate(-90) scale(1.98 -1.84)" gradientUnits="userSpaceOnUse">
      <stop offset="0" stop-color="#fd5"/>
      <stop offset=".1" stop-color="#fd5"/>
      <stop offset=".5" stop-color="#ff543e"/>
      <stop offset="1" stop-color="#c837ab"/>
    </radialGradient>
    <radialGradient id="_Безымянный_градиент_2" data-name="Безымянный градиент 2" cx="323.49" cy="-117.23" fx="323.49" fy="-117.23" r="65" gradientTransform="translate(342.86 -354.74) rotate(78.68) scale(.89 -3.65)" gradientUnits="userSpaceOnUse">
      <stop offset="0" stop-color="#3771c8"/>
      <stop offset=".13" stop-color="#3771c8"/>
      <stop offset="1" stop-color="#60f" stop-opacity="0"/>
    </radialGradient>
  </defs>
  <path class="cls-1" d="m66.03,1c-27.14,0-35.08.03-36.62.16-5.57.46-9.04,1.34-12.81,3.22-2.91,1.45-5.2,3.12-7.47,5.47-4.12,4.28-6.62,9.55-7.53,15.81-.44,3.04-.57,3.66-.59,19.19,0,5.18,0,11.99,0,21.12,0,27.12.03,35.05.16,36.59.45,5.42,1.3,8.83,3.1,12.56,3.44,7.14,10.01,12.5,17.75,14.5,2.68.69,5.64,1.07,9.44,1.25,1.61.07,18.02.12,34.44.12s32.84-.02,34.41-.1c4.4-.21,6.96-.55,9.78-1.28,7.79-2.01,14.24-7.29,17.75-14.53,1.76-3.64,2.66-7.18,3.07-12.32.09-1.12.12-18.98.12-36.81s-.04-35.66-.13-36.78c-.41-5.22-1.3-8.73-3.13-12.44-1.5-3.04-3.15-5.3-5.57-7.62-4.3-4.11-9.56-6.61-15.83-7.51-3.04-.44-3.64-.57-19.18-.6h-21.16Z"/>
  <path class="cls-2" d="m66.03,1c-27.14,0-35.08.03-36.62.16-5.57.46-9.04,1.34-12.81,3.22-2.91,1.45-5.2,3.12-7.47,5.47-4.12,4.28-6.62,9.55-7.53,15.81-.44,3.04-.57,3.66-.59,19.19,0,5.18,0,11.99,0,21.12,0,27.12.03,35.05.16,36.59.45,5.42,1.3,8.83,3.1,12.56,3.44,7.14,10.01,12.5,17.75,14.5,2.68.69,5.64,1.07,9.44,1.25,1.61.07,18.02.12,34.44.12s32.84-.02,34.41-.1c4.4-.21,6.96-.55,9.78-1.28,7.79-2.01,14.24-7.29,17.75-14.53,1.76-3.64,2.66-7.18,3.07-12.32.09-1.12.12-18.98.12-36.81s-.04-35.66-.13-36.78c-.41-5.22-1.3-8.73-3.13-12.44-1.5-3.04-3.15-5.3-5.57-7.62-4.3-4.11-9.56-6.61-15.83-7.51-3.04-.44-3.64-.57-19.18-.6h-21.16Z"/>
</svg>