<svg id="Layer_1" data-name="Layer 1" xmlns="http://www.w3.org/2000/svg" xmlns:xlink="http://www.w3.org/1999/xlink" viewBox="0 0 217.91 17.65"><defs><style>.cls-1{fill:none;}.cls-2{clip-path:url(#clip-path);}.cls-3{fill:#f68c1f;}.cls-4{fill:#123e66;}</style><clipPath id="clip-path" transform="translate(-199.83 -94.18)"><rect id="SVGID" class="cls-1" x="210.81" y="94.67" width="13.34" height="17.17"/></clipPath></defs><title>top-10</title><g class="cls-2"><path class="cls-3" d="M217.59,94.67A6.29,6.29,0,0,0,211,101a6.1,6.1,0,0,0,2.65,5.16l-2.87,4.91,1.35,0.77,2.9-5a7.18,7.18,0,0,0,2.54.45,6.33,6.33,0,1,0,0-12.65m0,1.48a4.85,4.85,0,1,1-4.87,4.85,4.8,4.8,0,0,1,4.87-4.85m-3.23,5.18a3.24,3.24,0,0,0,6.47,0h-1.44a1.79,1.79,0,0,1-3.58,0h-1.44Z" transform="translate(-199.83 -94.18)"/></g><path class="cls-4" d="M210,95.91h-4.43v11.45h-1.31V95.91h-4.43V94.76H210v1.15Z" transform="translate(-199.83 -94.18)"/><path class="cls-4" d="M238.08,94.76v12.6h-1.31V95.91h-8v11.45h-1.31V94.76h10.6Z" transform="translate(-199.83 -94.18)"/><path class="cls-4" d="M241.29,101.92H246V103h-4.72v-1.12Z" transform="translate(-199.83 -94.18)"/><path class="cls-4" d="M251.2,94.76v12.6h-1.3V95.91h-3V94.76h4.27Z" transform="translate(-199.83 -94.18)"/><path class="cls-4" d="M256.63,106.69a5.06,5.06,0,0,1-1.78-2.22,9.41,9.41,0,0,1,0-6.82,5.07,5.07,0,0,1,1.78-2.22,4.76,4.76,0,0,1,5.2,0,5.13,5.13,0,0,1,1.79,2.22,9.3,9.3,0,0,1,0,6.82,5.12,5.12,0,0,1-1.79,2.22A4.76,4.76,0,0,1,256.63,106.69Zm4.54-1a4,4,0,0,0,1.31-1.78,8.77,8.77,0,0,0,0-5.65,4,4,0,0,0-1.31-1.78,3.36,3.36,0,0,0-3.87,0A4,4,0,0,0,256,98.23a8.77,8.77,0,0,0,0,5.65,4,4,0,0,0,1.31,1.78A3.36,3.36,0,0,0,261.17,105.66Z" transform="translate(-199.83 -94.18)"/><path class="cls-4" d="M273.17,106.83a4.43,4.43,0,0,1-1.74-1.72,5.23,5.23,0,0,1,0-5,4.45,4.45,0,0,1,1.74-1.71,5.11,5.11,0,0,1,2.51-.61,4.86,4.86,0,0,1,2.19.48,3.64,3.64,0,0,1,1.52,1.4l-1,.65a3,3,0,0,0-1.19-1.05,3.52,3.52,0,0,0-1.57-.35,3.71,3.71,0,0,0-1.85.46,3.22,3.22,0,0,0-1.28,1.3,4.29,4.29,0,0,0,0,3.86,3.24,3.24,0,0,0,1.28,1.3,3.71,3.71,0,0,0,1.85.46,3.59,3.59,0,0,0,1.57-.34,2.91,2.91,0,0,0,1.19-1l1,0.65a3.62,3.62,0,0,1-1.53,1.4,4.87,4.87,0,0,1-2.18.48A5.1,5.1,0,0,1,273.17,106.83Z" transform="translate(-199.83 -94.18)"/><path class="cls-4" d="M288.34,99h-3.58v8.33h-1.28V99h-3.58V97.89h8.44V99Z" transform="translate(-199.83 -94.18)"/><path class="cls-4" d="M296.29,98.74a3.58,3.58,0,0,1,1,2.74v5.87h-1.22v-1.48a2.92,2.92,0,0,1-1.27,1.15,4.43,4.43,0,0,1-2,.41,3.89,3.89,0,0,1-2.52-.76,2.6,2.6,0,0,1-.06-3.94A4.27,4.27,0,0,1,293,102h3v-0.58a2.43,2.43,0,0,0-.68-1.86,2.83,2.83,0,0,0-2-.64,5.07,5.07,0,0,0-1.73.3,4.36,4.36,0,0,0-1.42.82l-0.58-1a5.12,5.12,0,0,1,1.73-.94,6.74,6.74,0,0,1,2.12-.33A4,4,0,0,1,296.29,98.74Zm-1.44,7.2a3,3,0,0,0,1.15-1.43V103h-3q-2.43,0-2.43,1.69a1.55,1.55,0,0,0,.63,1.31,2.87,2.87,0,0,0,1.76.48A3.37,3.37,0,0,0,294.85,105.94Z" transform="translate(-199.83 -94.18)"/><path class="cls-4" d="M307.34,99h-3.58v8.33h-1.28V99H298.9V97.89h8.44V99Z" transform="translate(-199.83 -94.18)"/><path class="cls-4" d="M317,103h-7.92a3.38,3.38,0,0,0,1.13,2.38,3.77,3.77,0,0,0,2.59.91,4.09,4.09,0,0,0,1.62-.31,3.54,3.54,0,0,0,1.28-.93l0.72,0.83A4.06,4.06,0,0,1,314.9,107a5.32,5.32,0,0,1-2.08.4,5.26,5.26,0,0,1-2.58-.62,4.48,4.48,0,0,1-1.75-1.72,4.89,4.89,0,0,1-.63-2.48,5.07,5.07,0,0,1,.6-2.48,4.37,4.37,0,0,1,1.66-1.71,4.63,4.63,0,0,1,2.37-.61,4.58,4.58,0,0,1,2.36.61,4.34,4.34,0,0,1,1.64,1.7,5.13,5.13,0,0,1,.59,2.49Zm-6.87-3.23a3.43,3.43,0,0,0-1.05,2.28h6.71a3.43,3.43,0,0,0-1.05-2.28A3.48,3.48,0,0,0,310.18,99.79Z" transform="translate(-199.83 -94.18)"/><path class="cls-4" d="M319.89,97.89h1.28v7.52l6.32-7.52h1.13v9.47h-1.28V99.83l-6.3,7.52h-1.15V97.89Zm2.36-2a2.19,2.19,0,0,1-.74-1.73h0.92a1.47,1.47,0,0,0,.5,1.13,1.85,1.85,0,0,0,1.26.42,1.89,1.89,0,0,0,1.27-.42,1.46,1.46,0,0,0,.51-1.12h0.92a2.18,2.18,0,0,1-.75,1.73,2.94,2.94,0,0,1-2,.61A2.9,2.9,0,0,1,322.25,95.91Z" transform="translate(-199.83 -94.18)"/><path class="cls-4" d="M343.16,103.23a2,2,0,0,1,.55,1.4,2.18,2.18,0,0,1-.57,1.48,3.63,3.63,0,0,1-1.54,1,6.26,6.26,0,0,1-2.14.35,7,7,0,0,1-2-.3,5.21,5.21,0,0,1-1.73-.87l0.43-1a5,5,0,0,0,1.51.76,5.82,5.82,0,0,0,1.75.27,4.18,4.18,0,0,0,2.15-.49,1.5,1.5,0,0,0,.84-1.34,1.32,1.32,0,0,0-.68-1.18,3.55,3.55,0,0,0-1.87-.42h-1.62V102h1.55a3.19,3.19,0,0,0,1.71-.41,1.23,1.23,0,0,0,.65-1.09,1.33,1.33,0,0,0-.73-1.19,3.69,3.69,0,0,0-1.9-.43,6.52,6.52,0,0,0-3,.77l-0.36-1a7.5,7.5,0,0,1,3.51-.88,5.74,5.74,0,0,1,2,.31,3.19,3.19,0,0,1,1.37.89,2,2,0,0,1,.5,1.33,1.87,1.87,0,0,1-.5,1.28,2.93,2.93,0,0,1-1.34.83A3,3,0,0,1,343.16,103.23Z" transform="translate(-199.83 -94.18)"/><path class="cls-4" d="M352.7,98.74a3.58,3.58,0,0,1,1,2.74v5.87h-1.22v-1.48A2.92,2.92,0,0,1,351.2,107a4.43,4.43,0,0,1-2,.41,3.89,3.89,0,0,1-2.52-.76,2.6,2.6,0,0,1-.06-3.94,4.27,4.27,0,0,1,2.78-.74h3v-0.58a2.43,2.43,0,0,0-.68-1.86,2.83,2.83,0,0,0-2-.64,5.07,5.07,0,0,0-1.73.3,4.36,4.36,0,0,0-1.42.82l-0.58-1a5.12,5.12,0,0,1,1.73-.94,6.74,6.74,0,0,1,2.12-.33A4,4,0,0,1,352.7,98.74Zm-1.44,7.2a3,3,0,0,0,1.15-1.43V103h-3q-2.43,0-2.43,1.69a1.55,1.55,0,0,0,.63,1.31,2.87,2.87,0,0,0,1.76.48A3.37,3.37,0,0,0,351.26,105.94Z" transform="translate(-199.83 -94.18)"/><path class="cls-4" d="M372.4,97.89v9.47h-1.17V99.87l-3.83,6.34h-0.58L363,99.85v7.51h-1.17V97.89h1.3l4,6.82,4.09-6.82h1.19Z" transform="translate(-199.83 -94.18)"/><path class="cls-4" d="M384.31,103h-7.92a3.38,3.38,0,0,0,1.13,2.38,3.77,3.77,0,0,0,2.59.91,4.09,4.09,0,0,0,1.62-.31,3.54,3.54,0,0,0,1.28-.93l0.72,0.83a4.06,4.06,0,0,1-1.58,1.15,5.32,5.32,0,0,1-2.08.4,5.26,5.26,0,0,1-2.58-.62,4.48,4.48,0,0,1-1.75-1.72,4.89,4.89,0,0,1-.63-2.48,5.07,5.07,0,0,1,.6-2.48,4.37,4.37,0,0,1,1.66-1.71,4.63,4.63,0,0,1,2.37-.61,4.58,4.58,0,0,1,2.36.61,4.34,4.34,0,0,1,1.64,1.7,5.13,5.13,0,0,1,.59,2.49Zm-6.87-3.23a3.43,3.43,0,0,0-1.05,2.28h6.71a3.43,3.43,0,0,0-1.05-2.28A3.48,3.48,0,0,0,377.45,99.79Z" transform="translate(-199.83 -94.18)"/><path class="cls-4" d="M388.6,106.83a4.43,4.43,0,0,1-1.74-1.72,5.23,5.23,0,0,1,0-5,4.45,4.45,0,0,1,1.74-1.71,5.11,5.11,0,0,1,2.51-.61,4.86,4.86,0,0,1,2.19.48,3.64,3.64,0,0,1,1.52,1.4l-1,.65a3,3,0,0,0-1.19-1.05,3.52,3.52,0,0,0-1.57-.35,3.71,3.71,0,0,0-1.85.46,3.22,3.22,0,0,0-1.28,1.3,4.29,4.29,0,0,0,0,3.86,3.24,3.24,0,0,0,1.28,1.3,3.71,3.71,0,0,0,1.85.46,3.59,3.59,0,0,0,1.57-.34,2.91,2.91,0,0,0,1.19-1l1,0.65a3.62,3.62,0,0,1-1.53,1.4,4.87,4.87,0,0,1-2.18.48A5.1,5.1,0,0,1,388.6,106.83Z" transform="translate(-199.83 -94.18)"/><path class="cls-4" d="M404.24,97.89v9.47h-1.17v-3.13h-3.33l-2.2,3.13h-1.39l2.36-3.31a3.2,3.2,0,0,1-1.69-1,2.89,2.89,0,0,1-.59-1.87,2.86,2.86,0,0,1,1.08-2.41,4.74,4.74,0,0,1,3-.83h4Zm-4,5.38h2.86V99H400.3q-2.77,0-2.77,2.14T400.21,103.27Z" transform="translate(-199.83 -94.18)"/><path class="cls-4" d="M417.74,106.24v3.49h-1.21v-2.38h-8.66V97.89h1.28v8.35h5.78V97.89h1.28v8.35h1.53Z" transform="translate(-199.83 -94.18)"/></svg>