<?xml version="1.0" encoding="UTF-8"?>
<svg id="_Слой_1" data-name="Слой 1" xmlns="http://www.w3.org/2000/svg" viewBox="0 0 414.97 414.97">
  <defs>
    <style>
      .cls-1 {
        fill: #fff;
      }

      .cls-2 {
        fill: #ff8b00;
      }
    </style>
  </defs>
  <circle class="cls-2" cx="207.48" cy="207.48" r="207.48"/>
  <path class="cls-1" d="m209.74,251.1c-20.43,0-36.7-15.57-36.7-35.14h-29.59c0,34.88,29.87,63.42,66.29,63.42s66.27-28.55,66.27-63.42h-29.59c0,19.56-16.26,35.14-36.68,35.14Z"/>
  <path class="cls-1" d="m74.54,412.05c-.5-.17-.93-.4-1.31-.67-.83,1.41-1.65,2.83-2.48,4.24l.44.25c.52-.44,1.13-.81,1.81-1.08,1.35-.53,2.76-.86,4.2-1.03.11-.24.24-.46.39-.68-1.02-.34-2.04-.68-3.04-1.04Z"/>
  <path class="cls-1" d="m119.37,395.38c12.8-21.92,25.59-43.85,38.4-65.78,16,6.04,33.57,9.27,51.98,9.27,74.07,0,134.47-58.22,134.47-129.63s-60.68-129.64-134.47-129.64-134.48,52.22-134.48,129.64c0,46.06,21.38,83.19,54.31,105.72-12.61,21.59-25.22,43.17-37.83,64.75m0,0c-.08.13-.15.26-.23.39,8.87,4.94,17.74,10.83,27.58,15.77.09-.16.19-.32.28-.48m90.37-86.81c-56.99,0-99.85-44.27-99.85-99.33s42.87-99.4,99.85-99.4h0c56.98,0,99.83,44.34,99.83,99.4s-42.85,99.34-99.83,99.34Z"/>
  <path class="cls-1" d="m89.13,384.16c7.34,8.07,17.44,11.99,27.28,16.28.89-1.53,1.78-3.06,2.67-4.58-9.84-4.94-18.71-10.83-27.58-15.77-.79,1.36-1.59,2.71-2.38,4.07Z"/>
</svg>