<?xml version="1.0" encoding="UTF-8" standalone="no"?>
<!-- Created with Inkscape (http://www.inkscape.org/) -->

<svg
   xmlns:dc="http://purl.org/dc/elements/1.1/"
   xmlns:cc="http://creativecommons.org/ns#"
   xmlns:rdf="http://www.w3.org/1999/02/22-rdf-syntax-ns#"
   xmlns:svg="http://www.w3.org/2000/svg"
   xmlns="http://www.w3.org/2000/svg"
   xmlns:sodipodi="http://sodipodi.sourceforge.net/DTD/sodipodi-0.dtd"
   xmlns:inkscape="http://www.inkscape.org/namespaces/inkscape"
   width="69.697556mm"
   height="9.9906054mm"
   viewBox="0 0 69.697556 9.9906054"
   version="1.1"
   id="svg957"
   inkscape:version="0.92.4 (5da689c313, 2019-01-14)"
   sodipodi:docname="Лого основной полноцвет.svg">
  <defs
     id="defs951" />
  <sodipodi:namedview
     id="base"
     pagecolor="#ffffff"
     bordercolor="#666666"
     borderopacity="1.0"
     inkscape:pageopacity="0.0"
     inkscape:pageshadow="2"
     inkscape:zoom="0.35"
     inkscape:cx="-522.57379"
     inkscape:cy="-58.26297"
     inkscape:document-units="mm"
     inkscape:current-layer="layer1"
     showgrid="false"
     fit-margin-top="0"
     fit-margin-left="0"
     fit-margin-right="0"
     fit-margin-bottom="0"
     inkscape:window-width="1920"
     inkscape:window-height="1001"
     inkscape:window-x="-9"
     inkscape:window-y="-9"
     inkscape:window-maximized="1" />
  <metadata
     id="metadata954">
    <rdf:RDF>
      <cc:Work
         rdf:about="">
        <dc:format>image/svg+xml</dc:format>
        <dc:type
           rdf:resource="http://purl.org/dc/dcmitype/StillImage" />
        <dc:title></dc:title>
      </cc:Work>
    </rdf:RDF>
  </metadata>
  <g
     inkscape:label="Layer 1"
     inkscape:groupmode="layer"
     id="layer1"
     transform="translate(-89.12741,-123.42732)">
    <g
       transform="matrix(0.26458333,0,0,0.26458333,66.817661,-25.855559)"
       id="g934">
      <path
         inkscape:connector-curvature="0"
         id="path24"
         d="m 187.94922,564.21875 c -7.91915,0 -14.4336,5.60532 -14.4336,13.91406 0,4.9433 2.30497,8.91599 5.8379,11.33399 -2.10615,3.60752 -4.21185,7.21042 -6.32032,10.8164 l 2.95899,1.69532 c 2.12896,-3.64149 4.25338,-7.28633 6.38086,-10.92969 1.71715,0.64737 3.60104,0.99609 5.57617,0.99609 7.95026,0 14.43359,-6.24836 14.43359,-13.91211 0,-7.66328 -6.51444,-13.91406 -14.43359,-13.91406 z m 0,3.24414 c 6.11559,0 10.7168,4.76051 10.7168,10.66992 0,5.90988 -4.60121,10.66016 -10.7168,10.66016 -6.11558,0 -10.71485,-4.75028 -10.71484,-10.66016 0,-5.90941 4.59926,-10.66992 10.71484,-10.66992 z m -7.11328,11.39063 c 0,3.74365 3.20572,6.80859 7.11328,6.80859 3.90803,0 7.11328,-3.06494 7.11328,-6.80859 h -3.17578 c 0,2.09983 -1.74527,3.77343 -3.9375,3.77343 -2.19176,0 -3.9375,-1.6736 -3.9375,-3.77343 z"
         clip-path="none"
         style="fill:#ff8b00;fill-opacity:1;fill-rule:nonzero;stroke:none;stroke-width:1.33333325" />
      <path
         inkscape:connector-curvature="0"
         id="path28"
         d="m 84.320312,566.08789 v 24.69141 h 3.527344 v -11.00391 h 14.179684 v 11.00391 h 3.52735 v -24.69141 h -3.52735 v 10.61719 H 87.847656 v -10.61719 z m 29.330078,0 v 14.03906 c 0,3.52726 0.91776,6.23217 2.75195,8.11328 1.83422,1.88157 4.39718,2.82227 7.68946,2.82227 3.29232,0 5.85526,-0.92922 7.68945,-2.78711 1.83422,-1.88111 2.75195,-4.5975 2.75195,-8.14844 v -14.03906 h -3.42187 v 13.89844 c 0,2.68073 -0.59985,4.67917 -1.79883,5.99609 -1.19943,1.29323 -2.92832,1.93946 -5.18555,1.93946 -4.63245,0 -6.94922,-2.64467 -6.94922,-7.93555 v -13.89844 z m 28.99805,0 v 24.69141 h 3.38672 v -17.88282 l 8.92382,14.88477 h 1.62305 l 8.92383,-14.99023 0.0332,17.98828 h 3.38672 l -0.0352,-24.69141 h -2.89257 l -10.15821,17.35547 -10.29882,-17.35547 z m 64.02734,0.002 v 24.69141 h 3.52734 v -7.51367 h 6.10352 c 0.37613,0 0.89233,-0.0234 1.55078,-0.0703 l 5.32617,7.58398 h 3.84571 l -5.85547,-8.28906 c 1.74042,-0.6111 3.08069,-1.58714 4.02148,-2.92774 0.94079,-1.34013 1.41016,-2.96434 1.41016,-4.86914 0,-2.68073 -0.91728,-4.78578 -2.75195,-6.31445 -1.83375,-1.5282 -4.34885,-2.29102 -7.54688,-2.29102 z m 26.51172,0 v 24.69141 h 3.52734 v -7.47852 h 6.10157 c 3.19803,0 5.71461,-0.76429 7.54882,-2.29296 1.83421,-1.52866 2.75196,-3.63373 2.75196,-6.31446 0,-2.68074 -0.91775,-4.78383 -2.75196,-6.3125 -1.83421,-1.52866 -4.35079,-2.29297 -7.54882,-2.29297 z m 26.0293,0 v 24.69141 h 17.91797 v -3.06836 h -14.39063 v -7.97266 H 275.125 v -2.99804 h -12.38086 v -7.58399 h 13.89844 v -3.06836 z m 24.51367,0 v 24.69141 h 10.40625 c 2.61015,0 4.92498,-0.51815 6.94726,-1.55273 2.02227,-1.03506 3.58624,-2.48 4.69141,-4.3379 1.12885,-1.88111 1.69336,-4.03298 1.69336,-6.45507 0,-2.42208 -0.56451,-4.56203 -1.69336,-6.41993 -1.10517,-1.88111 -2.66914,-3.34041 -4.69141,-4.375 -2.02228,-1.03505 -4.33711,-1.55078 -6.94726,-1.55078 z m 30.02539,0 v 24.69141 h 3.52734 v -24.69141 z m 19.2793,0 -11.18164,24.69141 h 3.63281 l 2.71484,-6.17383 h 13.12305 l 2.71484,6.17383 h 3.70508 l -11.2168,-24.69141 z m -122.83204,3.06836 h 5.9961 c 2.23402,0 3.93948,0.4828 5.11523,1.44727 1.17575,0.94032 1.76367,2.30253 1.76367,4.08984 0,1.78731 -0.58792,3.16295 -1.76367,4.12696 -1.17575,0.96446 -2.88121,1.44726 -5.11523,1.44726 h -5.9961 z m 26.51172,0 h 5.9961 c 2.23402,0 3.93902,0.4828 5.11523,1.44727 1.17576,0.94032 1.76367,2.30299 1.76367,4.08984 0,1.78731 -0.58791,3.16296 -1.76367,4.12696 -1.17621,0.94079 -2.88121,1.41211 -5.11523,1.41211 h -5.9961 z m 50.54297,0 h 6.66602 c 1.99906,0 3.75135,0.38813 5.25586,1.16407 1.52867,0.77594 2.70403,1.86857 3.52734,3.27929 0.82284,1.3875 1.23438,2.99978 1.23438,4.83399 0,1.83421 -0.41154,3.456 -1.23438,4.86718 -0.82331,1.3875 -1.99867,2.46821 -3.52734,3.24415 -1.50451,0.77639 -3.2568,1.16601 -5.25586,1.16601 h -6.66602 z m 47.50586,0.5293 5.32617,12.09766 H 329.4375 Z"
         clip-path="none"
         style="fill:#003f67;fill-opacity:1;fill-rule:nonzero;stroke:none;stroke-width:1.33333325" />
    </g>
  </g>
</svg>
