<?xml version="1.0" standalone="no"?>
<!DOCTYPE svg PUBLIC "-//W3C//DTD SVG 20010904//EN"
 "http://www.w3.org/TR/2001/REC-SVG-20010904/DTD/svg10.dtd">
<svg version="1.0" xmlns="http://www.w3.org/2000/svg"
 width="992.000000pt" height="992.000000pt" viewBox="0 0 992.000000 992.000000"
 preserveAspectRatio="xMidYMid meet">
<metadata>
Created by potrace 1.11, written by Peter Selinger 2001-2013
</metadata>
<g transform="translate(0.000000,992.000000) scale(0.100000,-0.100000)"
fill="#000000" stroke="none">
<path d="M4778 9915 c-2 -2 -39 -6 -83 -9 -90 -6 -173 -14 -225 -21 -58 -9
-213 -34 -240 -40 -14 -3 -38 -8 -55 -11 -44 -8 -60 -12 -60 -14 0 -1 -11 -3
-25 -5 -14 -2 -61 -13 -105 -25 -44 -12 -87 -23 -95 -25 -89 -23 -300 -94
-357 -120 -17 -8 -36 -15 -42 -15 -6 0 -19 -4 -29 -10 -9 -5 -39 -19 -67 -31
-95 -41 -320 -152 -323 -161 -2 -4 -8 -8 -13 -8 -18 0 -300 -176 -307 -192 -2
-5 -8 -8 -13 -8 -15 0 -190 -135 -308 -239 -92 -80 -234 -223 -316 -316 -38
-44 -73 -82 -76 -85 -3 -3 -42 -54 -87 -115 -45 -60 -91 -121 -102 -135 -11
-14 -20 -31 -20 -37 0 -7 -3 -13 -7 -13 -9 0 -9 0 -109 -175 -68 -119 -103
-186 -164 -318 -34 -74 -52 -116 -56 -132 -1 -5 -14 -41 -29 -80 -26 -68 -54
-154 -91 -280 -18 -63 -19 -65 -28 -105 -3 -14 -10 -43 -15 -65 -6 -22 -12
-53 -15 -70 -3 -16 -8 -41 -11 -55 -13 -66 -24 -132 -24 -138 1 -4 0 -9 -1
-12 -1 -3 -3 -16 -5 -30 -1 -14 -5 -45 -9 -70 -9 -66 -19 -197 -20 -257 -1
-29 -3 -53 -6 -53 -4 0 -5 -187 -1 -285 1 -16 1 -37 0 -45 -2 -31 11 -189 27
-320 14 -126 18 -149 35 -236 5 -28 12 -64 15 -80 3 -16 10 -47 16 -69 5 -22
12 -49 14 -60 18 -105 128 -435 190 -572 83 -185 244 -484 265 -491 5 -2 9 -8
9 -14 0 -12 61 -102 72 -106 4 -2 8 -8 8 -13 0 -8 123 -172 154 -205 6 -7 27
-31 46 -55 45 -56 299 -310 369 -369 30 -25 60 -51 67 -58 7 -6 17 -12 23 -12
5 0 14 -6 18 -14 4 -7 33 -31 63 -52 69 -49 69 -49 105 -78 35 -28 42 -11 -82
-219 -46 -76 -83 -140 -83 -142 0 -2 -22 -40 -50 -85 -27 -45 -50 -83 -50 -85
0 -2 -28 -50 -61 -107 -34 -57 -71 -119 -81 -138 -11 -19 -46 -78 -77 -130
-30 -52 -62 -107 -71 -121 -8 -15 -67 -115 -130 -223 -63 -108 -124 -214 -135
-234 -11 -20 -26 -43 -32 -50 -7 -7 -13 -17 -13 -22 0 -9 -40 -73 -60 -97 -5
-7 -10 -17 -10 -22 0 -6 -18 -39 -40 -73 -22 -35 -40 -68 -40 -75 0 -6 -4 -13
-8 -15 -4 -2 -46 -68 -92 -148 -46 -80 -110 -189 -142 -243 -32 -53 -58 -102
-58 -107 0 -6 -4 -10 -10 -10 -5 0 -10 -5 -10 -12 0 -6 -25 -51 -55 -101 -30
-49 -55 -93 -55 -97 0 -5 -6 -15 -13 -22 -6 -7 -23 -33 -36 -58 -14 -25 -29
-48 -35 -52 -6 -4 -7 -8 -3 -8 4 0 -6 -20 -23 -44 -16 -25 -30 -48 -30 -53 0
-4 -9 -19 -19 -32 -19 -24 -18 -51 1 -51 5 0 70 -36 145 -80 74 -44 137 -80
139 -80 3 0 69 -37 147 -83 78 -46 149 -86 157 -90 8 -4 31 -17 50 -28 19 -12
54 -32 77 -46 l42 -24 21 38 c11 21 34 61 51 88 16 28 33 58 36 67 3 10 9 18
14 18 5 0 9 7 9 15 0 8 4 15 8 15 4 0 13 12 19 27 13 32 55 106 64 113 3 3 12
16 19 30 7 14 51 91 99 172 137 235 164 283 185 325 6 13 14 23 19 23 4 0 7 4
7 9 0 5 27 55 60 110 33 56 60 106 60 111 0 6 5 10 10 10 6 0 10 4 10 8 0 5
74 136 165 291 91 155 165 287 165 292 0 5 4 9 9 9 5 0 11 8 15 18 3 9 10 24
16 32 9 14 147 249 193 330 11 19 57 99 103 178 46 79 84 147 84 152 0 4 4 10
8 12 5 2 22 28 39 58 112 203 187 321 202 315 41 -16 286 -96 305 -100 11 -2
22 -4 24 -6 1 -1 5 -2 10 -4 42 -11 61 -16 82 -19 14 -3 25 -5 25 -6 0 -3 263
-60 274 -58 3 0 8 -1 11 -2 3 -1 14 -3 25 -4 11 -2 40 -7 65 -11 25 -4 61 -9
80 -11 19 -2 53 -6 75 -9 114 -14 193 -17 445 -19 151 0 313 3 360 8 47 4 99
10 115 11 57 6 130 15 145 20 8 2 37 6 64 10 27 3 53 8 58 11 5 3 26 7 49 9
22 3 95 18 162 36 67 17 129 32 137 34 47 10 329 108 410 143 147 62 213 91
234 103 68 39 86 48 86 43 0 -4 6 -2 13 4 6 5 35 22 62 38 28 15 64 36 80 46
17 10 38 21 48 24 9 4 17 10 17 15 0 5 5 9 11 9 5 0 44 23 86 50 42 28 80 50
84 50 5 0 9 4 9 8 0 4 28 26 63 49 34 23 71 50 82 60 11 10 38 31 60 47 22 17
42 32 45 35 3 4 37 33 75 65 90 77 325 312 395 396 30 36 58 67 63 68 4 2 7 8
7 12 0 5 16 26 35 47 19 21 35 42 35 46 0 4 9 18 21 30 31 34 129 179 206 308
75 124 213 398 213 422 0 8 7 20 15 27 8 7 15 23 15 36 0 13 4 24 10 24 5 0 9
3 8 8 -3 6 22 81 42 127 9 21 73 228 86 280 4 17 8 32 9 35 3 11 16 66 19 85
3 11 12 54 21 95 9 41 18 89 20 105 1 17 6 50 9 75 26 186 31 262 31 500 -1
200 -6 310 -19 405 -3 17 -7 50 -10 75 -3 25 -8 56 -10 70 -3 14 -7 43 -11 65
-3 22 -7 47 -10 55 -2 8 -6 26 -9 40 -16 97 -115 443 -128 448 -4 2 -8 12 -8
21 0 15 -45 133 -92 241 -6 14 -12 27 -13 30 -2 11 -120 245 -125 250 -3 3
-30 48 -60 100 -29 52 -57 97 -62 98 -4 2 -8 8 -8 13 0 5 -12 27 -27 48 -16
21 -35 49 -43 61 -8 12 -21 28 -27 36 -7 7 -13 15 -13 19 0 3 -24 36 -52 73
-29 37 -56 72 -61 77 -104 134 -342 379 -492 506 -121 102 -270 213 -385 288
-52 33 -100 65 -107 71 -7 5 -15 10 -18 10 -4 0 -43 22 -88 48 -111 65 -310
162 -448 218 -100 40 -326 119 -369 129 -8 2 -58 15 -110 28 -146 38 -248 60
-330 72 -42 6 -88 14 -115 19 -11 2 -51 7 -90 11 -38 4 -88 9 -110 12 -49 5
-582 12 -587 8z m512 -859 c41 -4 86 -8 100 -10 44 -6 124 -18 150 -22 14 -3
39 -7 55 -10 17 -2 41 -8 55 -11 14 -4 32 -8 40 -9 8 -1 42 -9 75 -18 33 -10
74 -21 90 -25 17 -5 42 -14 58 -20 15 -6 27 -8 27 -5 0 4 6 2 13 -3 6 -5 32
-16 57 -23 25 -7 50 -17 56 -22 7 -5 21 -10 32 -13 11 -2 55 -20 97 -39 43
-20 84 -36 91 -36 8 0 14 -3 14 -8 0 -4 15 -14 33 -21 51 -23 216 -119 285
-167 35 -24 67 -44 72 -44 6 0 10 -4 10 -8 0 -4 26 -26 58 -49 101 -72 288
-244 379 -350 23 -26 52 -59 64 -73 12 -14 40 -50 62 -80 22 -30 43 -57 46
-60 11 -9 111 -161 111 -167 0 -4 6 -14 14 -22 7 -9 35 -56 61 -106 26 -49 52
-96 58 -102 5 -7 6 -13 3 -13 -4 0 2 -13 14 -30 12 -16 18 -30 14 -30 -3 0 -2
-6 4 -13 6 -7 31 -64 55 -127 24 -63 48 -124 52 -135 4 -11 10 -29 12 -39 2
-11 10 -38 17 -60 16 -48 33 -111 39 -146 3 -14 10 -43 15 -65 6 -22 13 -56
16 -75 3 -19 7 -44 10 -55 2 -11 7 -45 11 -75 4 -30 9 -63 11 -73 20 -109 20
-475 0 -652 -13 -110 -19 -151 -22 -157 -3 -4 -7 -31 -10 -60 -3 -29 -9 -57
-12 -63 -3 -5 -7 -16 -8 -25 -2 -21 -10 -54 -34 -140 -12 -41 -22 -79 -23 -85
-10 -36 -61 -182 -67 -190 -5 -5 -8 -12 -8 -15 -1 -3 -5 -18 -11 -33 -6 -16
-11 -33 -11 -38 0 -5 -5 -9 -12 -9 -6 0 -8 -3 -5 -7 4 -3 2 -12 -4 -20 -6 -7
-8 -13 -3 -13 5 0 5 -4 -1 -8 -5 -4 -30 -47 -54 -97 -73 -152 -167 -302 -286
-455 -27 -36 -57 -74 -65 -84 -29 -38 -306 -311 -345 -341 -22 -16 -46 -37
-55 -45 -9 -8 -51 -39 -95 -69 -44 -30 -82 -57 -85 -60 -10 -12 -112 -71 -121
-71 -5 0 -9 -4 -9 -10 0 -5 -4 -10 -9 -10 -5 0 -36 -15 -70 -34 -33 -19 -70
-38 -83 -42 -13 -3 -25 -10 -28 -13 -16 -21 -368 -157 -453 -175 -7 -2 -19 -6
-27 -9 -23 -8 -172 -42 -230 -52 -14 -2 -36 -6 -50 -9 -14 -3 -45 -8 -70 -11
-25 -3 -61 -7 -80 -10 -184 -24 -580 -25 -699 0 -13 2 -47 7 -75 10 -60 7
-118 17 -176 30 -14 3 -34 7 -45 9 -20 4 -95 23 -127 31 -10 3 -26 7 -35 9
-49 11 -245 82 -331 118 -179 77 -313 151 -506 280 -40 27 -223 174 -265 212
-159 149 -340 354 -382 434 -7 12 -16 22 -21 22 -4 0 -8 6 -8 14 0 8 -4 16 -8
18 -9 3 -72 96 -72 104 0 3 -8 18 -18 32 -11 15 -32 52 -49 82 -16 30 -35 64
-41 75 -60 112 -169 385 -187 475 -4 19 -11 41 -16 50 -10 18 -37 138 -54 235
-3 17 -8 37 -10 45 -2 8 -7 40 -10 70 -3 30 -8 62 -10 70 -29 107 -22 606 10
790 3 14 10 52 15 85 6 33 13 69 15 80 24 143 123 435 208 617 115 244 260
463 442 667 37 41 199 203 227 227 39 32 218 172 245 191 55 39 242 153 255
155 7 2 15 6 18 9 15 19 274 134 395 176 132 45 368 106 455 118 14 2 45 6 70
10 60 10 89 13 190 21 47 3 86 7 88 9 5 5 348 -3 422 -9z"/>
<path d="M3164 6068 c-10 -15 10 -237 30 -333 7 -35 28 -119 33 -135 2 -8 4
-16 4 -18 -1 -1 5 -18 13 -37 9 -20 16 -39 17 -43 1 -4 5 -17 10 -30 5 -13 9
-25 9 -28 0 -25 158 -316 199 -366 6 -7 33 -42 61 -78 46 -59 226 -250 236
-250 2 0 39 -29 83 -64 43 -35 101 -77 128 -92 26 -16 50 -32 51 -36 2 -4 8
-8 14 -8 6 0 32 -13 57 -28 94 -57 353 -159 445 -176 14 -3 34 -7 44 -10 16
-5 37 -9 95 -20 164 -31 454 -37 593 -12 11 2 41 7 67 10 27 4 59 10 70 13 12
2 31 6 42 8 11 2 21 4 23 5 1 2 7 4 12 5 6 1 11 3 13 4 1 2 13 4 26 7 59 11
253 83 263 98 4 6 8 7 8 3 0 -22 333 176 411 245 15 13 49 41 75 63 26 22 55
48 63 58 9 10 39 42 66 70 59 61 106 119 155 190 19 29 37 54 40 57 7 7 26 41
68 120 19 36 40 74 47 85 6 11 18 37 25 58 7 22 18 51 26 65 8 15 14 34 14 43
0 9 3 19 8 23 4 4 8 12 8 17 1 5 2 10 4 12 1 1 3 9 5 17 1 8 8 35 15 60 7 25
14 54 16 65 2 11 9 45 15 75 12 64 21 161 23 240 l1 55 -414 0 c-360 0 -414
-2 -416 -15 -1 -8 -5 -46 -9 -85 -3 -38 -11 -88 -16 -110 -6 -22 -13 -49 -15
-60 -7 -31 -25 -73 -62 -150 -50 -104 -68 -132 -138 -214 -140 -165 -387 -306
-585 -335 -14 -2 -41 -7 -60 -11 -84 -15 -234 -11 -364 9 -100 16 -376 132
-376 158 0 4 -5 8 -11 8 -6 0 -16 6 -23 13 -8 6 -24 19 -37 27 -44 29 -162
155 -208 225 -67 100 -128 239 -146 334 -7 40 -18 119 -20 156 -2 22 -4 42 -4
45 -1 8 -822 6 -827 -2z"/>
</g>
</svg>
